<?xml version="1.0" encoding="utf-8"?>
<!-- Generator: Adobe Illustrator 18.0.0, SVG Export Plug-In . SVG Version: 6.00 Build 0)  -->
<!DOCTYPE svg PUBLIC "-//W3C//DTD SVG 1.1//EN" "http://www.w3.org/Graphics/SVG/1.1/DTD/svg11.dtd">
<svg version="1.1" xmlns="http://www.w3.org/2000/svg" xmlns:xlink="http://www.w3.org/1999/xlink" x="0px" y="0px"
	 viewBox="0 0 99 17.1" enable-background="new 0 0 99 17.1" xml:space="preserve">
<g id="Layer_1">
	<rect x="-11.6" y="-19.8" display="none" fill="#FFDE17" width="243.8" height="136.1"/>
</g>
<g id="logo">
	<g id="text">
	</g>
	<g id="cube">
		<g>
			<path fill="#555555" d="M86.3,0"/>
			<path fill="#555555" d="M48.4,4"/>
			<path fill="#555555" d="M86.3,0.1"/>
			<g>
				<path fill="#555555" d="M45.7,15.2c-1.1,1.2-2.7,1.9-4.7,1.9c-3.9,0-6.3-2.8-6.3-6.3c0-3.5,2.4-6.3,6.3-6.3c2,0,3.6,0.8,4.8,2
					L45.7,15.2z M37.7,10.8c0,1.8,1.1,3.6,3.3,3.6c2.2,0,3.3-1.7,3.3-3.6C44.3,9,43,7.2,41,7.2C38.8,7.2,37.7,9,37.7,10.8z"/>
				<path fill="#555555" d="M49.6,0.1V10l4.3-5.3h2.8v1l-4.5,5.1l4.5,5v1.3h-2.6l-4.6-5.4v5.4h-2.9v-17H49.6z"/>
				<path fill="#555555" d="M86.6,11.9h-7.9c0.2,1.5,1.5,2.5,3.6,2.5c1.1,0,2.5-0.4,3.2-1.1l1.1,1.1l0,1.4c-1.2,0.9-2.9,1.3-4.4,1.3
					c-4.1,0-6.6-2.5-6.6-6.4c0-3.6,2.5-6.3,6.4-6.3c1.9,0,3.5,0.6,4.6,1.8 M85.2,9.4c-0.2-1.6-1.4-2.3-3.1-2.3
					c-1.6,0-2.9,0.8-3.4,2.3H85.2z"/>
				<path fill="#555555" d="M90.4,0.1v6.6c1.1-1.4,2.4-1.8,3.7-1.8c3.4,0,4.9,2.3,4.9,5.8v6.4H96v-6.4c0-2.2-1.1-3.1-2.7-3.1
					c-1.7,0-2.9,1.5-2.9,3.2v6.2h-2.9v-17H90.4z"/>
				<path fill="#555555" d="M64.6,17.1v-6.7c0-1.6-0.8-3.1-2.4-3.1c-1.6,0-2.5,1.5-2.5,3.1v6.7h-3V4.7h2.7l0.2,1.5
					c0.6-1.3,2-1.7,3.1-1.7c1.4,0,2.9,0.6,3.5,2.3c1.1-1.8,2.4-2.3,4-2.3c2.7,0,4.3,1.4,4.9,3.9c-0.6,2.3-0.6,3.2,0.2,5.4v3.3h-3
					v-6.7c0-1.6-0.7-3-2.2-3c-1.6,0-2.6,1.4-2.6,3.1v6.7H64.6z"/>
				<path fill="#555555" d="M34.3,13.9c-1.4,1.9-3.7,3.2-7,3.2c-2.1,0-4.6,0-6.7,0v-17c2.1,0,4.6,0,6.7,0c4.6,0,7.2,2.4,8.2,5.5
					C34.8,6.7,32.7,9.2,34.3,13.9z M23.8,14h3.5c3.9,0,5.4-2.8,5.4-5.6C32.7,5.7,31.1,3,27.4,3h-3.5V14z"/>
			</g>
			<g>
				<path fill="#555555" d="M94.4,2.6V0.5h-0.8V0.1h1.9v0.4h-0.7v2.1H94.4z"/>
				<path fill="#555555" d="M96,2.6h-0.4V0.1h0.3l0.8,1.2l0.8-1.2h0.3v2.5h-0.4V0.9l-0.6,1h-0.2l-0.6-1V2.6z"/>
			</g>
			<g>
				<rect x="0" y="0.1" fill="#555555" width="17" height="17"/>
				<polygon fill="#FFDE17" points="3.4,3.5 13.6,5.5 13.6,11.8 3.4,13.7 				"/>
			</g>
		</g>
	</g>
</g>
</svg>
