<?xml version="1.0" encoding="utf-8"?>
<!-- Generator: Adobe Illustrator 18.0.0, SVG Export Plug-In . SVG Version: 6.00 Build 0)  -->
<!DOCTYPE svg PUBLIC "-//W3C//DTD SVG 1.1//EN" "http://www.w3.org/Graphics/SVG/1.1/DTD/svg11.dtd">
<svg version="1.1" id="Layer_1" xmlns="http://www.w3.org/2000/svg" xmlns:xlink="http://www.w3.org/1999/xlink" x="0px" y="0px"
	 viewBox="0 0 200 200" enable-background="new 0 0 200 200" xml:space="preserve">
<rect fill="#FFFFFF" width="200" height="200"/>
<g>
	<path fill="#25582C" d="M96.6,103.6c0-3.3-0.6-5.1-5.5-5.9c-0.7-0.1-0.9-0.3-0.9-0.7v-0.9c0-0.3,0.2-0.5,0.7-0.7
		c3.1-1.2,6.8-2.7,10.6-4.8c0.8-0.4,1.3-0.6,1.9-0.6c0.5,0,0.6,0.5,0.5,1.2c-0.2,1.7-0.2,7.8-0.2,15.9v10.7c0,3.8,0,7.3,0.1,8.4
		c0.2,1.9,0.5,2.5,1.6,2.5h4.5c0.8,0,1,0.3,1,0.9v1.7c0,0.7-0.2,1-0.9,1c-0.8,0-5.3-0.3-9.4-0.3c-5.7,0-9.5,0.3-10.6,0.3
		c-0.5,0-0.8-0.2-0.8-0.8v-2c0-0.6,0.3-0.8,1-0.8H95c1.1,0,1.5-0.4,1.6-2c0.1-2.9,0.1-6,0.1-8.9V103.6z M92,73.6
		c0-2.5,2.2-5.5,6.2-5.5c3.6,0,5.3,2.9,5.3,5.2c0,2.6-1.8,5.8-5.9,5.8C95.4,79.1,92,76.8,92,73.6z"/>
</g>
<circle fill="none" stroke="#25582C" stroke-miterlimit="10" cx="100" cy="100" r="57.3"/>
</svg>
