<?xml version="1.0" encoding="utf-8"?>
<!-- Generator: Adobe Illustrator 18.0.0, SVG Export Plug-In . SVG Version: 6.00 Build 0)  -->
<!DOCTYPE svg PUBLIC "-//W3C//DTD SVG 1.1//EN" "http://www.w3.org/Graphics/SVG/1.1/DTD/svg11.dtd">
<svg version="1.1" id="Capa_1" xmlns="http://www.w3.org/2000/svg" xmlns:xlink="http://www.w3.org/1999/xlink" x="0px" y="0px"
	 viewBox="0 0 1024 768" enable-background="new 0 0 1024 768" xml:space="preserve">
<g>
	<path d="M562.2,354.8v-1.6c0-4.4-3.6-8-8-8h-84.3c-4.4,0-8,3.6-8,8v61.6c0,0,0,0,0,0c0,4.4,3.6,8,8,8h84.3c4.4,0,8-3.6,8-8V354.8
		C562.2,354.8,562.2,354.8,562.2,354.8z M469.8,348.2h84.3c2.7,0,5,2.2,5,5v1c-7.1,7.1-18.8,18.7-28.5,28.4l-15.2-15.2
		c-1.9-1.9-4.9-1.9-6.7,0l-43.8,43.8v-57.9C464.9,350.5,467.1,348.2,469.8,348.2z M554.2,419.8h-84.3c-2.5,0-4.6-1.9-4.9-4.4
		l45.9-45.9c0.7-0.7,1.8-0.7,2.4,0l15.2,15.2c-8,8-14.2,14.2-14.4,14.5c-0.5,0.7-0.4,1.6,0.3,2.1c0.3,0.2,0.6,0.3,0.9,0.3
		c0.4,0,0.9-0.2,1.2-0.6c1.2-1.3,29.1-29.2,42.7-42.7v56.3C559.1,417.5,556.9,419.8,554.2,419.8z"/>
	<path d="M482.8,374.2c4.4,0,8-3.6,8-8c0-4.4-3.6-8-8-8s-8,3.6-8,8C474.8,370.6,478.4,374.2,482.8,374.2z M482.8,361.2
		c2.7,0,5,2.2,5,5s-2.2,5-5,5c-2.7,0-5-2.2-5-5S480.1,361.2,482.8,361.2z"/>
</g>
</svg>
