<?xml version="1.0" encoding="utf-8"?>
<!-- Generator: Adobe Illustrator 18.0.0, SVG Export Plug-In . SVG Version: 6.00 Build 0)  -->
<!DOCTYPE svg PUBLIC "-//W3C//DTD SVG 1.1//EN" "http://www.w3.org/Graphics/SVG/1.1/DTD/svg11.dtd">
<svg version="1.1" id="Layer_1" xmlns="http://www.w3.org/2000/svg" xmlns:xlink="http://www.w3.org/1999/xlink" x="0px" y="0px"
	 viewBox="0 0 135.1 74.4" style="enable-background:new 0 0 135.1 74.4;" xml:space="preserve">
<g>
	<path style="fill:#FFFFFF;" d="M36.4,44.8V19.5h-8.9v-4.3h22v4.3h-8.9v25.2H36.4z"/>
	<path style="fill:#FFFFFF;" d="M62,15.3c9.6,0,14.5,7.4,14.5,14.7c0,7.4-4.8,14.7-14.5,14.7H51.4V15.3H62z M62,40.4
		c6.8,0,10.3-5.2,10.3-10.4S68.8,19.5,62,19.5h-6.3v20.9H62z"/>
	<path style="fill:#FFFFFF;" d="M82.4,19.5c2.6-2.6,6.2-4.4,10.2-4.4c6.7,0,12,4.2,13.7,10.8h-4.2c-1.6-4.4-5.2-6.6-9.5-6.6
		c-2.8,0-5.4,1.2-7.2,3.2c-1.8,1.9-3,4.5-3,7.6c0,2.9,1.2,5.5,3,7.5c1.8,1.9,4.4,3.2,7.2,3.2c4.5,0,8.2-2.6,9.7-7h4.2
		c-1.7,6.7-7.1,11.2-13.9,11.2c-4,0-7.6-1.7-10.2-4.4c-2.5-2.7-4.2-6.4-4.2-10.5C78.2,25.9,79.9,22.2,82.4,19.5z"/>
	<path style="fill:#FFFFFF;stroke:#FFFFFF;stroke-width:0.25;stroke-miterlimit:10;" d="M77,58.9h4.5V59c-1.6,0-3.1,0-4.7,0v-8.4H77
		V58.9z"/>
	<path style="fill:#FFFFFF;stroke:#FFFFFF;stroke-width:0.25;stroke-miterlimit:10;" d="M82.4,51.8c0.8-0.8,1.8-1.3,3-1.3
		c1.2,0,2.3,0.5,3,1.3c0.8,0.8,1.3,1.9,1.3,3s-0.5,2.3-1.3,3c-0.8,0.8-1.8,1.3-3,1.3c-1.2,0-2.3-0.5-3-1.3c-0.8-0.8-1.3-1.9-1.3-3
		S81.6,52.6,82.4,51.8z M88.3,51.9c-0.7-0.8-1.8-1.2-2.9-1.2c-1.1,0-2.1,0.5-2.9,1.2c-0.7,0.7-1.2,1.8-1.2,2.9
		c0,1.1,0.5,2.2,1.2,2.9c0.7,0.8,1.8,1.2,2.9,1.2c1.1,0,2.2-0.5,2.9-1.2c0.7-0.7,1.2-1.8,1.2-2.9C89.5,53.7,89,52.7,88.3,51.9z"/>
	<path style="fill:#FFFFFF;stroke:#FFFFFF;stroke-width:0.25;stroke-miterlimit:10;" d="M98,53.2c-0.6-1.5-2-2.4-3.6-2.4
		c-1.1,0-2.1,0.5-2.8,1.2c-0.7,0.7-1.1,1.8-1.1,2.9s0.4,2.1,1.1,2.9c0.7,0.8,1.7,1.2,2.8,1.2c1.7,0,3.5-1.3,3.8-3.1h-3.7v-0.2h3.9
		c0,0.3-0.1,0.6-0.2,0.8c-0.6,1.5-2.3,2.7-3.8,2.7c-1.1,0-2.2-0.5-2.9-1.3c-0.7-0.8-1.2-1.8-1.2-3c0-1.2,0.5-2.2,1.2-3
		c0.7-0.8,1.8-1.3,2.9-1.3c1.7,0,3.2,1,3.8,2.6H98z"/>
	<path style="fill:#FFFFFF;stroke:#FFFFFF;stroke-width:0.25;stroke-miterlimit:10;" d="M100.3,51.8c0.8-0.8,1.8-1.3,3-1.3
		c1.2,0,2.3,0.5,3,1.3c0.8,0.8,1.3,1.9,1.3,3s-0.5,2.3-1.3,3c-0.8,0.8-1.8,1.3-3,1.3c-1.2,0-2.3-0.5-3-1.3c-0.8-0.8-1.3-1.9-1.3-3
		S99.5,52.6,100.3,51.8z M106.2,51.9c-0.7-0.8-1.8-1.2-2.9-1.2c-1.1,0-2.1,0.5-2.9,1.2c-0.7,0.7-1.2,1.8-1.2,2.9
		c0,1.1,0.5,2.2,1.2,2.9c0.7,0.8,1.8,1.2,2.9,1.2c1.1,0,2.2-0.5,2.9-1.2c0.7-0.7,1.2-1.8,1.2-2.9C107.4,53.7,106.9,52.7,106.2,51.9z
		"/>
</g>
</svg>
